<?xml version="1.0" standalone="no"?>
<!DOCTYPE svg PUBLIC "-//W3C//DTD SVG 20010904//EN"
 "http://www.w3.org/TR/2001/REC-SVG-20010904/DTD/svg10.dtd">
<svg version="1.0" xmlns="http://www.w3.org/2000/svg"
 width="1134.000000pt" height="969.000000pt" viewBox="0 0 1134.000000 969.000000"
 preserveAspectRatio="xMidYMid meet">
<metadata>
Created by potrace 1.14, written by Peter Selinger 2001-2017
</metadata>
<g transform="translate(0.000000,969.000000) scale(0.100000,-0.100000)"
fill="#000000" stroke="none">
<path d="M5486 9675 c-216 -45 -373 -129 -526 -284 -193 -194 -285 -424 -284
-706 1 -143 21 -247 73 -373 126 -302 394 -523 721 -593 115 -24 320 -20 437
10 385 97 675 410 744 801 6 36 11 115 11 175 -2 452 -305 839 -751 957 -101
26 -327 33 -425 13z"/>
<path d="M2380 8938 c-151 -88 -381 -221 -510 -295 -129 -75 -291 -168 -360
-208 -108 -63 -460 -266 -900 -520 -69 -40 -142 -82 -163 -95 l-37 -22 0
-1418 0 -1417 -206 -188 -206 -188 26 -21 c14 -12 106 -95 205 -186 l181 -165
0 -1457 0 -1456 43 -24 c23 -14 161 -93 307 -178 319 -184 274 -158 1158 -669
393 -227 720 -415 728 -418 12 -4 14 91 14 643 l0 649 -113 64 c-61 35 -191
110 -287 166 -96 56 -297 172 -446 259 -200 115 -273 163 -278 179 -3 12 -6
523 -6 1136 l0 1113 -52 47 c-29 25 -82 73 -118 107 -36 34 -102 94 -147 135
l-82 74 27 28 c15 16 105 99 200 185 l172 157 0 1092 0 1093 38 24 c31 20 570
332 984 570 l108 61 0 653 c0 358 -1 652 -2 651 -2 0 -127 -73 -278 -161z"/>
<path d="M8672 8448 l3 -652 350 -201 c193 -111 445 -256 560 -323 l210 -121
3 -1094 2 -1094 103 -95 c56 -52 146 -134 200 -183 90 -82 110 -108 88 -117
-5 -1 -36 -28 -68 -58 -32 -30 -118 -109 -191 -174 l-132 -120 0 -1131 0
-1131 -147 -85 c-157 -91 -578 -334 -828 -479 l-150 -87 -3 -653 -2 -652 32
20 c31 18 591 341 1338 772 184 106 414 239 510 295 96 56 221 128 278 160
l102 59 0 1457 0 1457 200 182 c110 101 200 185 200 189 0 3 -90 87 -199 186
l-200 180 0 1422 -1 1421 -182 105 c-101 58 -325 187 -498 287 -281 163 -508
293 -910 525 -69 40 -237 137 -375 217 -137 80 -260 150 -273 157 l-22 12 2
-653z"/>
<path d="M6525 8039 c-45 -69 -182 -204 -261 -259 -453 -313 -1075 -223 -1412
206 -46 59 -71 83 -82 79 -8 -4 -89 -49 -180 -102 -200 -116 -282 -163 -990
-571 -305 -175 -611 -352 -680 -392 -69 -39 -153 -88 -187 -108 l-63 -36 0
-716 0 -715 28 -16 c15 -9 86 -50 157 -91 72 -41 317 -183 545 -315 228 -132
445 -256 483 -277 l67 -38 0 -744 c0 -409 -3 -744 -6 -744 -6 0 -703 401
-1094 629 l-165 97 -3 162 c-1 89 -6 162 -10 161 -6 0 -519 -564 -694 -763
l-47 -53 138 -279 c75 -153 202 -412 282 -574 79 -162 185 -378 236 -480 l92
-185 0 162 1 163 73 -44 c39 -23 133 -78 207 -121 74 -43 187 -108 250 -145
63 -37 270 -157 460 -267 190 -111 552 -321 805 -468 253 -147 588 -342 745
-433 157 -91 323 -187 369 -214 l83 -49 152 87 c83 48 468 271 856 494 388
224 881 508 1095 631 215 124 503 290 642 370 l252 144 1 717 0 717 -42 25
c-24 13 -194 111 -378 218 -702 408 -892 518 -1107 643 -123 71 -223 132 -223
135 1 3 121 73 268 155 l267 151 3 498 c2 392 5 497 15 493 6 -3 161 -91 342
-197 182 -105 448 -260 592 -343 l263 -152 0 -183 c0 -101 4 -182 8 -180 4 2
173 176 374 388 l366 384 -371 741 -372 740 -3 -152 c-1 -84 -4 -153 -6 -153
-2 0 -91 50 -197 111 -107 62 -347 200 -534 307 -187 107 -446 256 -575 330
-434 249 -765 439 -786 450 -19 10 -25 7 -49 -29z m-468 -2231 c211 -117 383
-215 383 -218 0 -3 -49 -33 -108 -66 -59 -34 -182 -105 -273 -158 l-166 -95
-244 142 c-134 78 -303 176 -376 217 -73 41 -131 79 -130 83 2 8 512 304 527
306 2 1 177 -95 387 -211z m-927 -1803 c102 -59 291 -168 420 -243 422 -243
497 -287 521 -303 24 -16 21 -18 -178 -118 -112 -55 -209 -101 -217 -101 -8 0
-182 98 -388 218 l-373 218 -3 228 c-2 214 -1 226 15 217 10 -5 101 -57 203
-116z"/>
</g>
</svg>
